<svg width="768" height="384" viewBox="0 0 768 384" fill="none" xmlns="http://www.w3.org/2000/svg">
<path d="M553.501 124.646C573.181 134.029 564.598 138.936 558.298 153.944C552.999 166.552 539.761 190.733 539.518 204.05L575.863 150.301C587.795 158.387 587.356 162.692 580.456 174.087C576.523 180.589 565.336 201.537 570.714 208.127C571.539 208.511 572.259 208.849 573.189 208.418C585.553 202.517 587.33 188.378 591.676 177.013C594.185 170.459 597.208 162.982 600.245 156.713C605.251 159.258 607.498 160.769 610.426 165.645C610.888 172.436 609.328 173.113 606.26 178.542C603.155 184.032 593.743 202.583 598.614 208.16C601.126 209.674 604.809 207.369 606.973 205.885C620.173 196.819 619.531 180.532 626.086 167.473C627.478 164.696 628.888 159.886 632.563 159.714C634.58 159.593 644.956 163.348 643.865 165.755C638.506 177.611 628.445 190.5 628.228 203.915C635.004 191.318 641.454 178.666 650.39 167.368C655.535 160.867 658.475 157.94 661.914 150.327C662.87 150.972 663.826 151.637 664.711 152.376C667.366 154.598 671.401 158.174 671.731 161.824C672.283 167.859 653.645 192.479 654.909 204.929C655.021 206.048 655.378 207.182 656.341 207.86C657.076 208.377 657.879 208.527 658.756 208.359C662.476 207.641 668.6 201.178 669.778 197.603C670.614 195.071 670.509 191.993 670.726 189.348C671.251 182.928 674.113 176.498 677.675 171.206C679.944 167.843 686.911 158.469 691.303 158.737C693.114 158.847 694.4 160.967 696.208 160.921C697.794 160.881 699.965 159.282 701.75 158.957C704.881 158.385 708.534 158.8 711.193 160.65C714.373 162.857 716.33 168.348 716.983 172.062C718.955 183.318 714.193 194.001 707.833 203.018C710.094 203.042 711.62 202.991 713.878 202.617C716.36 202.207 722.124 199.706 724.138 201.388L724.006 202.248C719.146 209.258 709.254 209.97 701.57 208.737C694.269 215.483 684.92 219.504 676.156 211.027C674.094 209.031 672.808 206.212 671.769 203.537C669.238 207.054 666.571 211.072 662.968 213.558C657.665 217.21 650.743 216.355 647.383 210.555C642.02 201.288 645.8 190.627 648.016 181.053C642.121 190.424 638.623 201.069 632.956 210.512C631.584 212.69 628.464 215.991 625.738 216.31C619.134 217.082 618.035 206.813 617.364 202.451C616.753 203.837 616.018 205.166 615.17 206.422C610.321 213.683 601.025 218.9 592.321 213.621C588.298 211.182 587.334 205.938 586.539 201.569C583.745 206.634 581.109 211.268 575.866 214.128C570.234 217.202 563.649 215.731 560.836 209.757C555.901 199.269 560.176 187.383 563.491 177.154C557.533 184.69 553.119 194.831 548.203 203.079C545.33 207.896 543.759 215.628 537.065 215.623C529.254 215.617 529.381 207.76 529.385 202.22C524.495 207.702 523.348 208.932 517.153 212.703C504.856 218.449 490.426 216.029 485.424 202.111C482.263 207.16 477.999 213.014 472.145 214.841C460.52 218.471 456.583 211.769 453.493 202.61C450.283 202.231 447.729 202.03 444.496 201.887C439.978 209.897 432.275 216.383 422.694 216.617C419.341 216.699 416 216.288 413.473 213.842C411.898 212.343 411.013 210.261 411.024 208.087C411.013 205.454 412.284 202.739 414.2 200.988C420.545 195.188 428.341 195.699 436.115 195.719C439.831 185.762 441.279 183.095 440.915 172.535C432.853 174.787 424.835 176.173 420.436 184.118C405.98 210.229 395.405 238.219 383.773 265.494C383.634 265.825 382.828 265.657 382.569 265.631C381.489 264.309 382.209 261.418 382.726 259.882C388.179 243.653 392.78 226.341 398.424 210.268C390.47 217.075 382.655 218.722 377.9 207.638C371.819 214.878 365.146 218.022 355.539 214.326C351.898 212.926 348.876 208.413 347.662 204.717C341.963 187.356 351.819 164.991 369.189 158.568C376.201 156.002 382.351 157.505 388.891 160.671C389.176 158.729 389.011 157.875 390.211 156.531C394.209 155.832 402.069 165.09 400.164 169.866C397.651 176.168 380.158 203.875 389.428 208.363C390.118 208.365 391.048 208.34 391.663 207.996C402.268 202.064 403.996 190.675 407.533 180.326C410.596 171.351 413.495 162.321 416.795 153.657C421.265 154.934 423.77 157.084 426.688 160.587C426.913 160.8 428.48 162.905 428.716 162.785C435.253 159.421 447.418 155.342 451.381 164.719C455.878 175.353 450.586 187.934 446.724 198.105C449.623 198.373 451.138 198.701 453.988 199.378C453.909 186.907 461.825 168.021 467.525 156.623C472.37 159.214 479.398 164.309 477.406 170.529C475.138 177.599 470.041 184.151 467.428 191.264C465.613 196.212 463.621 201.774 464.998 207.083C465.639 209.569 470.33 208.497 471.729 207.479C475.951 205.179 482.233 199.208 483.376 194.508C484.52 189.82 484.291 184.663 485.938 179.999C490.021 167.172 504.65 154.244 518.863 158.351C530.39 161.681 533.371 183.521 522.335 189.239C518.559 191.195 513.031 189.599 509.229 188.077C510.354 184.712 515.803 175.443 513.86 172.465C505.678 165.458 492.699 186.644 493.059 194.236C493.453 202.474 497 208.287 505.678 208.484C514.805 208.692 523.955 201.056 530.098 195.324C532.093 187.092 534.061 178.725 536.803 170.709C540.568 159.7 544.831 148.836 549.144 138.035C550.858 133.741 551.795 128.929 553.501 124.646ZM376.243 203.37C375.639 193.074 379.299 183.822 381.703 174.072C382.156 172.231 377.93 170.694 376.351 170.789C370.303 171.221 365.903 173.897 361.888 178.455C355.513 185.693 349.345 200.786 358.339 208.351C358.906 208.829 359.347 209.272 360.1 209.386C368.09 211.289 370.942 209.047 376.243 203.37ZM681.815 207.52C684.294 208.707 685.295 209.018 687.954 209.745C691.569 208.642 692.694 208.383 695.683 205.906C691.055 203.114 689.236 199.238 687.819 194.378C686.829 190.979 686.866 181.288 686.428 180.243C680.431 188.207 675.871 198.212 681.815 207.52ZM700.591 199.933C704.671 193.552 707.769 185.097 706.43 177.416C706.085 175.452 705.489 173.799 703.348 173.91C697.01 179.277 694.258 193.569 700.591 199.933ZM419.383 208.398C423.583 207.66 429.669 206.207 432.114 202.262C432.031 201.939 432.05 201.763 431.87 201.578C428.48 201.788 419.514 203.157 418.944 207.188C419.041 207.478 419.255 208.162 419.383 208.398Z" fill="#84C8C3"/>
<path d="M236.631 124.786C246.136 128.694 250.247 130.656 248.146 141.708C264.449 137.966 290.295 133.797 306.516 139.259C312.154 141.158 316.136 150.399 313.026 156.073C310.828 157.496 293.381 149.565 290.429 152.41L290.218 152.373C290.694 152.596 295.396 153.125 296.235 153.229L296.607 153.768C294.985 156.061 289.736 155.888 287.133 155.851C282.031 155.778 279.178 153.881 275.88 150.223C265.34 156.692 263.839 153.35 252.987 151.334C251.621 151.08 244.351 151.993 242.589 152.177C237.64 162.989 221.337 195.291 223.096 206.126C223.307 207.425 223.742 208.035 224.8 208.779C229.493 209.68 237.775 202.232 240.165 198.272C238.369 183.502 243.976 167.724 257.35 160.041C262.343 157.146 268.298 156.404 273.848 157.987C287.666 161.836 285.461 182.807 273.115 188.044C263.825 191.985 259.178 192.165 249.647 189.266C249.364 192.227 249.023 195.465 249.561 198.405C250.135 201.538 251.711 204.391 254.4 206.183C257.283 208.106 260.728 208.295 264.083 208.146C283.288 207.293 288.834 190.458 292.965 189.661L293.324 190.227C293.451 207.93 252.61 231.121 242.58 204.549C239.953 207.648 237.638 211.277 234.149 213.334C233.346 213.743 232.01 214.414 231.163 214.657C220.094 217.83 213.645 213.55 213.688 202.516C208.784 208.452 206.378 214.198 197.697 215.453C187.918 216.867 183.792 211.296 182.413 202.693C178.595 208.843 172.604 217.938 163.556 215.341C159.851 214.278 158.169 210.998 156.548 207.762C152.561 212.846 148.135 215.598 141.536 215.804C129.55 216.178 124.535 203.866 124.594 193.643C124.651 183.872 129.911 172.814 136.693 165.9C143.465 158.997 151.831 156.005 161.345 157.868C163.381 158.245 165.335 160.204 167.04 160.204C168.806 158.423 166.99 157.274 169.5 156.109C173.679 156.636 178.346 164.015 179.423 167.909C177.547 175.666 158.959 202.298 167.807 208.425C172.111 209.562 181.056 198.527 181.822 195.254C184.982 181.746 189.893 169.724 195.568 156.991C196.253 157.289 196.929 157.608 197.594 157.947C212.235 165.477 204.364 173.799 198.987 184.207C195.789 190.397 192.607 196.878 192.9 203.969C192.894 204.862 193.048 207.922 194.108 208.348C199.109 210.357 206.898 202.296 209.062 199.503C215.273 191.487 215.779 183.071 218.731 173.883C221.233 166.094 223.771 158.522 227.062 151.144C223.224 150.566 214.915 147.182 214.807 142.671C217.239 137.999 229.3 150.276 232.392 139.421C233.421 135.807 235.406 128.301 236.631 124.786ZM154.924 203.853C155.203 197.226 155.765 190.381 157.524 183.979C159.04 178.46 164.372 170.028 153.58 170.671C133.923 174.767 124.968 206.757 140.478 209.955C147.821 210.655 149.782 208.9 154.924 203.853ZM252.195 184.977C255.051 184.998 256.544 184.98 259.406 184.289C265.803 182.259 267.752 178.325 269.717 172.409C267.698 172.452 264.835 172.427 262.882 172.578C257.596 175.364 254.218 179.347 252.195 184.977Z" fill="#84C8C3"/>
<path d="M128.315 123.126C132.954 123.945 141.688 129.624 140.293 135.215C138.586 142.062 135.018 148.87 132.193 155.396C126.645 168.15 121.497 181.075 116.759 194.152C112.608 205.573 109.203 213.997 108.963 226.27C98.5072 221.931 97.7471 217.404 100.376 207.031C101.614 202.143 103.158 197.065 104.301 192.169C98.2244 197.478 82.4568 216.765 75.7214 219.495C69.6389 219.08 68.1787 178.407 68.0478 172.593C66.4901 175.496 64.9994 179.595 63.5909 182.718C60.0851 190.488 56.3909 198.16 53.8368 206.31C52.8329 209.512 53.4258 211.937 52.6548 214.935C52.5869 215.2 51.9907 215.352 51.6326 215.504C49.2806 214.458 46.8056 212.996 45.4053 210.765C37.7621 198.582 59.6279 155.851 64.7842 143.077C66.4196 139.025 67.5764 134.926 68.5844 130.687C71.3062 132.17 74.6621 133.221 77.0958 135.103C83.3834 140.038 82.1332 150.562 81.4563 157.54C80.1052 171.471 76.1182 185.168 75.7428 199.171C75.6059 204.276 76.1321 209.534 76.7519 214.588C82.3286 207.387 88.1898 201.316 93.5681 193.77C106.613 175.467 116.083 154.954 124.749 134.3C126.059 131.178 126.809 126.855 128.177 123.464L128.315 123.126Z" fill="#84C8C3"/>
<path d="M338.086 140.759C341.63 141.757 348.062 144.571 350.482 147.391C352.308 149.52 352.281 152.002 351.571 154.612C350.093 160.043 346.987 166.051 344.838 171.128C339.9 182.794 328.43 208.386 327.508 220.035C327.264 221.962 327.13 224.013 326.97 225.958C324.213 224.707 320.458 223.258 318.981 220.42C315.813 214.327 325.292 180.416 327.558 173.25C330.032 165.427 333.184 157.825 335.691 150.015C336.674 146.952 337.175 143.823 338.086 140.759Z" fill="#84C8C3"/>
<path d="M349.701 121.581C357.835 120.378 360.899 125.093 362.753 132.112C361.197 137.829 359.879 140.562 354.281 143.088C340.163 147.858 336.574 127.629 349.701 121.581Z" fill="#84C8C3"/>
<path d="M506.859 246.692C494.038 240.735 503.214 221.814 519.688 230.144C523.108 232.827 524.728 238.765 522.253 242.371C519.546 248.041 512.169 248.011 506.859 246.692ZM518.304 244.017C521.038 239.872 521.679 236.565 518.589 232.487C516.486 230.757 514.142 229.79 511.363 230.036C508.892 230.24 506.619 231.462 505.086 233.409C504.748 233.834 504.426 234.27 504.122 234.718C503.376 239.185 503.608 242.569 508.014 244.983C512.488 246.242 514.217 245.728 518.304 244.017Z" fill="#6A526F"/>
<path d="M519.688 230.144C523.108 232.827 524.728 238.765 522.253 242.371C519.546 248.041 512.169 248.011 506.859 246.692C507.152 246.185 507.666 245.485 508.014 244.983C512.488 246.242 514.217 245.728 518.304 244.017C521.038 239.872 521.679 236.565 518.589 232.487C519.148 232.426 519.137 232.356 519.587 231.991L519.688 230.144Z" fill="#6A526F"/>
<path d="M457.125 227.921C462.026 228.208 472.833 226.27 474.93 231.686C475.046 231.987 475.125 232.302 475.166 232.623C475.466 235.176 472.713 236.643 472.968 238.044C473.343 240.105 476.227 245.429 475.361 247.389L474.547 247.673C472.41 247.365 472.541 247.027 472.301 245.214C471.697 236.76 466.627 238.777 459.633 238.741C459.641 240.729 460.05 246.249 459.393 247.461C458.28 247.763 458.745 247.788 457.646 247.339C456.682 245.563 457.166 231.061 457.125 227.921ZM459.682 236.707C463.256 236.745 468.66 237.268 471.577 235.592C472.17 234.331 472.365 234.06 472.226 232.659C470.677 229.087 462.885 229.896 459.442 229.912C459.716 232.625 459.783 233.987 459.682 236.707Z" fill="#6A526F"/>
<path d="M609.273 141.115C614.763 140.564 619.953 141.884 619.29 149.156C619.031 152.02 616.683 154.1 614.4 155.691C603.836 159.508 601.867 146.39 609.273 141.115Z" fill="#84C8C3"/>
<path d="M476.912 141.095C481.884 140.714 483.47 141.035 486.339 145.262C487.085 150.564 485.615 153.28 480.917 155.977C471.448 159.518 468.639 146.033 476.912 141.095Z" fill="#84C8C3"/>
<path d="M205.826 141.047C211.617 140.935 216.158 143.036 214.519 150.301C213.894 153.071 211.184 154.969 208.703 156.2C200.266 158.577 199.7 149.775 201.695 143.864C203.443 142.275 203.657 142.084 205.826 141.047Z" fill="#84C8C3"/>
<path d="M559.638 227.373C563.654 228.277 566.838 241.311 569.732 244.638C570.239 245.216 570.726 246.186 570.884 246.957L570.531 247.44C566.631 248.45 567.073 243.853 565.06 241.978C563.796 241.331 562 241.561 560.53 241.616L555.183 241.534C554.369 243.378 553.517 245.687 552.163 247.114C550.9 247.67 551.417 247.653 550.218 247.26L550.09 246.52C551.159 243.516 557.815 229.314 559.638 227.373ZM558 237.5H563L560.5 232L558 237.5Z" fill="#6A526F"/>
<path d="M653.548 227C657.564 227.904 660.748 240.937 663.643 244.265C664.149 244.843 664.636 245.813 664.794 246.584L664.441 247.067C660.541 248.077 660.983 243.479 658.97 241.604C657.706 240.958 655.91 241.188 654.44 241.243L649.093 241.161C648.279 243.005 647.427 245.314 646.073 246.741C644.81 247.297 645.327 247.28 644.128 246.887L644 246.146C645.069 243.143 651.725 228.941 653.548 227ZM651.91 237.127H656.91L654.41 231.627L651.91 237.127Z" fill="#6A526F"/>
<path d="M672.407 228.405C673.258 228.94 673.318 229.376 673.644 230.324C672.223 231.333 670.775 232.252 670.723 234.161C671.593 235.905 674.394 237.085 676.348 237.129C684.384 237.307 691.794 244.732 680.072 247.192C676.344 247.974 667.753 247.675 667.258 242.235C667.877 241.197 667.524 241.549 668.825 240.99L669.665 241.36C671.559 246.589 679.318 246.957 682.618 243.969C683.139 242.667 683.083 243.24 682.727 241.783C679.505 237.823 666.107 241.53 668.147 232.445C668.585 230.483 670.82 229.307 672.407 228.405Z" fill="#6A526F"/>
<path d="M574.238 227.761C575.371 227.832 575.967 227.734 576.792 228.469C577.129 230.181 577.043 243.372 576.807 245.508C579.496 245.595 588.192 245.191 589.951 246.343L590.052 247.223C587.584 247.576 576.713 247.462 573.859 247.491C574.606 242.232 573.796 233.491 574.238 227.761Z" fill="#6A526F"/>
<path d="M436.479 246.865C436.445 243.927 436.033 229.179 436.839 227.939C438.287 228.343 439.235 228.169 439.217 229.919C438.455 231.271 439.104 234.619 438.992 236.657L446.462 236.816C448.265 236.728 451.022 236.537 452.533 237.625C451.352 239.475 441.992 238.75 439.498 238.793L438.947 239.28C439.003 241.099 439.16 243.805 438.797 245.512L438.384 245.249L438.305 246.706C437.507 247.096 437.518 246.934 436.479 246.865Z" fill="#6A526F"/>
<path d="M446.459 236.816C448.262 236.728 451.019 236.538 452.53 237.625C451.349 239.475 441.989 238.75 439.495 238.794L439.277 238.438L439.585 237.874C441.524 237.097 444.22 237.133 446.459 236.816Z" fill="#6A526F"/>
<path d="M483.708 228.411C487.792 227.958 495.172 227.364 496.968 233.254C497.096 233.672 496.608 234.023 496.304 234.366C493.128 234.922 493.867 232.012 491.159 230.682C487.758 229.015 480.809 230.863 483.367 235.556C485.069 236.639 485.587 236.745 487.559 237.27C486.479 237.293 485.797 237.274 484.724 237.523C484.308 238.026 484.188 238.106 484.083 238.764C477.258 237.14 478.777 231.731 483.708 228.411Z" fill="#6A526F"/>
<path d="M530.207 232.126C530.29 233.829 530.47 245.532 530.342 247.102L529.772 247.528C528.434 247.586 528.85 247.758 528.044 247.061C527.601 244.488 526.889 231.533 528.336 228.778C528.7 228.084 529.139 228.12 529.78 228.013C531.471 228.598 533.057 231.001 534.182 232.477C534.044 233.652 533.927 234.829 533.837 236.008C532.75 234.659 531.426 233.371 530.207 232.126Z" fill="#6A526F"/>
<path d="M632.856 247.362C631.6 247.436 629.26 247.739 628.3 247.032C627.79 242.507 628.187 233.873 628.247 228.956C628.258 228.352 628.862 227.989 629.305 227.728L630.006 228.025C631.585 230.376 629.935 241.162 630.943 245.356L631.78 245.735L631.596 246.194L632.05 246.3L632.252 246.713L631.296 246.928L632.856 247.362Z" fill="#6A526F"/>
<path d="M417.285 238.7C415.957 240.595 418.2 245.838 415.755 247.919L415.162 247.785C414.228 245.665 413.808 229.394 414.802 227.908C415.327 229.017 415.871 230.225 416.445 231.3L416.546 231.599C417.446 234.272 416.37 234.579 417.427 236.441C418.41 236.892 419.407 236.786 420.487 236.767C419.175 237.265 417.168 237.499 416.748 238.107C416.872 238.252 417.146 238.613 417.285 238.7Z" fill="#6A526F"/>
<path d="M490.936 237.513C492.856 238.063 497.408 239.666 497.855 241.32C499.79 248.464 486.211 247.313 483.676 247.093C484.61 246.924 485.056 246.926 485.836 246.358L485.645 245.316C488.6 245.565 492.248 245.977 494.506 243.529C495.076 241.013 492.848 240.557 490.883 239.996C490.771 238.974 490.673 238.538 490.936 237.513Z" fill="#6A526F"/>
<path d="M702.513 240.181C698.849 239.678 693.093 239.196 690.622 236.149C688.117 233.061 691.668 230.114 694.106 228.576L694.739 230.858C689.407 236.454 697.128 237.105 701.208 237.47C701.388 238.74 701.388 239.244 702.723 239.892L702.513 240.181Z" fill="#6A526F"/>
<path d="M701.21 237.47C703.126 238.109 706.917 239.158 707.51 241.082C709.7 248.194 698.071 247.655 694.805 247.017C695.273 246.548 695.735 246.418 696.35 246.161L696.417 245.495C699.586 245.721 701.993 245.884 704.783 243.95C705.455 242.801 705.383 243.299 705.117 242.091C704.3 240.953 703.771 240.788 702.515 240.181L702.725 239.892C701.39 239.244 701.39 238.74 701.21 237.47Z" fill="#6A526F"/>
<path d="M543.629 242.749C544.207 239.088 542.148 229.804 544.983 227.877L545.917 228.055C546.839 229.534 546.502 237.604 546.46 239.97C545.358 241.471 545.144 241.657 543.629 242.749Z" fill="#6A526F"/>
<path d="M431.443 231.014C433.029 240.595 424.141 239.046 417.286 238.699C417.148 238.613 416.874 238.252 416.75 238.107C417.17 237.499 419.176 237.265 420.489 236.767C424.246 236.737 427.535 237.555 429.395 233.734C429.489 232.121 430.295 231.847 431.443 231.014Z" fill="#6A526F"/>
<path d="M604.343 231.807C604.406 233 604.159 233.526 603.72 234.587C603.724 235.683 604.343 236.175 605.07 236.987C605.19 239.929 605.183 241.859 607.519 244.009C607.661 244.142 607.808 244.272 607.958 244.399L607.039 246.322C601.838 243.189 600.259 236.512 604.343 231.807Z" fill="#6A526F"/>
<path d="M436.836 227.939C439.27 227.959 451.652 227.725 452.668 228.405L452.687 228.999C450.876 230.662 442.281 229.925 439.213 229.919C439.232 228.169 438.283 228.343 436.836 227.939Z" fill="#6A526F"/>
<path d="M436.477 246.865C437.515 246.934 437.504 247.096 438.303 246.707L438.382 245.249L438.794 245.512C441.34 245.575 451.255 245.463 452.68 246.581C451.184 247.5 438.727 247.778 436.747 247.433L436.477 246.865Z" fill="#6A526F"/>
<path d="M414.801 227.908C414.801 227.908 423.756 227.82 428.218 228.535C427.896 229.086 427.36 230.218 426.857 230.466C424.521 230.139 418.753 229.21 416.927 230.446L416.443 231.3C415.87 230.225 414.801 227.908 414.801 227.908Z" fill="#6A526F"/>
<path d="M612.551 245.911C621.157 245.062 617.763 242.275 621.731 239.617L622.477 239.531C624.802 242.527 619.496 247.118 616.623 247.03C615.048 245.876 614.632 246.179 612.551 245.911Z" fill="#6A526F"/>
<path d="M546.461 239.97C546.63 242.303 547.635 246.874 544.882 247.628C543.232 247.277 542.37 246.357 541.207 245.137C542.133 244.302 542.272 243.972 542.853 242.92L543.63 242.749C545.145 241.656 545.358 241.47 546.461 239.97Z" fill="#6A526F"/>
<path d="M700.548 228.306C702.674 228.521 703.454 228.813 705.31 229.914C706.113 231.103 707.02 232.229 707.215 233.636L706.885 234.214C703.702 233.775 703.998 231.234 699.164 229.971C699.58 229.645 700.203 228.756 700.548 228.306Z" fill="#6A526F"/>
<path d="M631.781 245.735C636.217 245.633 640.653 245.727 645.082 246.015L645.659 247.225C641.242 247.133 637.379 247.621 632.857 247.362L631.297 246.928L632.253 246.713L632.051 246.3L631.597 246.194L631.781 245.735Z" fill="#6A526F"/>
<path d="M608.991 228.357C609.872 228.891 610.596 229.892 611.132 230.139C606.929 231.801 605.995 232.455 605.069 236.988C604.341 236.176 603.722 235.684 603.719 234.588C604.157 233.527 604.405 233.001 604.341 231.807C605.26 230.322 607.45 229.252 608.991 228.357Z" fill="#6A526F"/>
<path d="M694.802 247.017C691.81 247.318 687.977 243.546 690.516 240.957L691.412 241.13C692.458 241.92 692.612 243.108 692.972 244.398L696.415 245.495L696.347 246.161C695.732 246.418 695.271 246.548 694.802 247.017Z" fill="#6A526F"/>
<path d="M483.674 247.093C481.169 246.535 478.236 243.659 479.65 241.178L480.55 241.191C483.111 242.371 481.026 244.073 485.643 245.316L485.834 246.358C485.054 246.925 484.608 246.924 483.674 247.093Z" fill="#6A526F"/>
<path d="M680.131 228.477C682.261 229.202 685.7 231.573 685.036 234.107C683.798 234.405 684.301 234.369 682.91 233.995C681.245 232.318 680.96 231.367 678.863 230.445C679.726 229.992 679.658 229.575 680.131 228.477Z" fill="#6A526F"/>
<path d="M537.195 240.033C537.308 239.152 537.702 237.801 537.93 236.901C539.625 239.148 540.915 240.888 542.854 242.92C542.273 243.972 542.134 244.302 541.208 245.137L537.195 240.033Z" fill="#6A526F"/>
<path d="M608.992 228.357C612.198 228.234 616.89 227.704 619.571 229.571L617.685 230.854C615.232 230.103 613.616 230.079 611.133 230.139C610.597 229.892 609.873 228.89 608.992 228.357Z" fill="#6A526F"/>
<path d="M607.958 244.399C609.263 244.857 611.262 245.629 612.552 245.912C614.633 246.18 615.049 245.877 616.624 247.031C613.332 247.485 610.152 247.59 607.039 246.323L607.958 244.399Z" fill="#6A526F"/>
<path d="M534.185 232.478L537.931 236.901C537.702 237.801 537.309 239.152 537.196 240.033C535.906 238.624 534.999 237.5 533.84 236.008C533.93 234.829 534.046 233.652 534.185 232.478Z" fill="#6A526F"/>
<path d="M487.558 237.27C488.935 237.278 489.576 237.304 490.933 237.512C490.671 238.537 490.768 238.973 490.881 239.995C488.372 239.666 486.557 239.316 484.082 238.764C484.187 238.105 484.307 238.026 484.723 237.523C485.796 237.274 486.478 237.292 487.558 237.27Z" fill="#6A526F" fill-opacity="0.988235"/>
<path d="M619.57 229.571C620.755 230.598 621.677 231.261 622.424 232.635L622.469 233.53C620.552 234.816 618.861 232.225 617.684 230.854L619.57 229.571Z" fill="#6A526F"/>
<path d="M672.406 228.405C674.949 228.126 677.593 228.223 680.131 228.476C679.659 229.575 679.726 229.992 678.864 230.445C676.659 230.143 675.916 230.013 673.644 230.324C673.318 229.376 673.257 228.94 672.406 228.405Z" fill="#6A526F"/>
<path d="M694.105 228.577C696.423 228.158 698.208 228.265 700.548 228.305C700.203 228.756 699.58 229.645 699.164 229.971C697.585 230.156 696.213 230.236 694.739 230.858L694.105 228.577Z" fill="#6A526F"/>
<path d="M428.221 228.535C429.863 229.319 430.302 229.558 431.442 231.014C430.294 231.847 429.488 232.121 429.394 233.734C428.884 231.829 428.554 231.26 426.859 230.467C427.362 230.218 427.898 229.086 428.221 228.535Z" fill="#6A526F"/>
</svg>
